<svg width="25" height="25" viewBox="0 0 25 25" fill="none" xmlns="http://www.w3.org/2000/svg">
<path d="M19.4891 8.55226C19.3923 8.45463 19.2771 8.37714 19.1501 8.32425C19.0232 8.27137 18.887 8.24414 18.7495 8.24414C18.612 8.24414 18.4759 8.27137 18.3489 8.32425C18.222 8.37714 18.1068 8.45463 18.0099 8.55226L13.2391 13.3231C13.1423 13.4207 13.0271 13.4982 12.9001 13.5511C12.7732 13.604 12.637 13.6312 12.4995 13.6312C12.362 13.6312 12.2259 13.604 12.0989 13.5511C11.972 13.4982 11.8568 13.4207 11.7599 13.3231L6.98911 8.55226C6.89227 8.45463 6.77706 8.37714 6.65012 8.32425C6.52319 8.27137 6.38704 8.24414 6.24952 8.24414C6.11201 8.24414 5.97586 8.27137 5.84892 8.32425C5.72199 8.37714 5.60678 8.45463 5.50994 8.55226C5.31593 8.74743 5.20703 9.01144 5.20703 9.28664C5.20703 9.56183 5.31593 9.82584 5.50994 10.021L10.2912 14.8022C10.8771 15.3875 11.6714 15.7162 12.4995 15.7162C13.3277 15.7162 14.1219 15.3875 14.7079 14.8022L19.4891 10.021C19.6831 9.82584 19.792 9.56183 19.792 9.28664C19.792 9.01144 19.6831 8.74743 19.4891 8.55226Z" fill="#454444"/>
</svg>
